<?xml version="1.0" standalone="no"?>
<!DOCTYPE svg PUBLIC "-//W3C//DTD SVG 20010904//EN"
 "http://www.w3.org/TR/2001/REC-SVG-20010904/DTD/svg10.dtd">
<svg version="1.0" xmlns="http://www.w3.org/2000/svg"
 width="162.000000pt" height="148.000000pt" viewBox="0 0 162.000000 148.000000"
 preserveAspectRatio="xMidYMid meet">

<g transform="translate(0.000000,148.000000) scale(0.100000,-0.100000)"
fill="#000000" stroke="none">
<path d="M802 1240 c-27 -43 -30 -138 -6 -196 9 -22 47 -80 85 -130 108 -143
131 -216 91 -293 -22 -45 -42 -52 -42 -14 -1 46 -33 104 -112 199 -93 110
-118 155 -118 214 l-1 45 -19 -23 c-27 -33 -43 -98 -36 -145 9 -53 34 -100
100 -184 108 -137 134 -218 97 -292 -24 -46 -41 -53 -41 -18 0 27 -48 103
-139 222 -34 44 -67 92 -74 108 -6 15 -15 27 -18 27 -13 0 -136 -43 -164 -57
-112 -58 -175 -130 -175 -200 0 -24 6 -56 14 -71 39 -75 156 -147 299 -185 72
-19 107 -22 277 -21 183 1 201 2 285 28 156 48 249 109 286 190 22 50 23 73 5
118 -32 75 -146 151 -288 192 l-58 17 0 40 c0 51 -32 113 -110 214 -75 96
-100 144 -109 204 l-7 46 -22 -35z"/>
</g>
</svg>
